<mxfile host="65bd71144e" modified="2020-12-29T17:26:36.273Z" agent="5.0 (Windows NT 10.0; Win64; x64) AppleWebKit/537.36 (KHTML, like Gecko) Code/1.51.1 Chrome/83.0.4103.122 Electron/9.3.3 Safari/537.36" version="13.10.0" etag="bW0FpvIISlVXU0vh0Smp" type="embed">
    <diagram id="9hYjgq8muCH03cscpKgu" name="Page-1">
        <mxGraphModel dx="999" dy="644" grid="1" gridSize="10" guides="1" tooltips="1" connect="1" arrows="1" fold="1" page="1" pageScale="1" pageWidth="827" pageHeight="1169" background="#ffffff" math="0" shadow="1">
            <root>
                <mxCell id="0"/>
                <mxCell id="1" parent="0"/>
                <mxCell id="10" value="" style="shape=ext;double=1;rounded=1;whiteSpace=wrap;html=1;strokeColor=#6B6B6B;arcSize=19;fillColor=#C4C4C4;" vertex="1" parent="1">
                    <mxGeometry x="10" y="40" width="200" height="470" as="geometry"/>
                </mxCell>
                <mxCell id="12" style="edgeStyle=orthogonalEdgeStyle;rounded=0;orthogonalLoop=1;jettySize=auto;html=1;exitX=0.25;exitY=1;exitDx=0;exitDy=0;entryX=0;entryY=0.5;entryDx=0;entryDy=0;strokeColor=#000000;" edge="1" parent="1" source="2" target="5">
                    <mxGeometry relative="1" as="geometry">
                        <Array as="points">
                            <mxPoint x="30" y="150"/>
                            <mxPoint x="30" y="220"/>
                        </Array>
                    </mxGeometry>
                </mxCell>
                <mxCell id="13" style="edgeStyle=orthogonalEdgeStyle;rounded=0;orthogonalLoop=1;jettySize=auto;html=1;exitX=0.25;exitY=1;exitDx=0;exitDy=0;entryX=0;entryY=0.5;entryDx=0;entryDy=0;strokeColor=#000000;" edge="1" parent="1" source="2" target="7">
                    <mxGeometry relative="1" as="geometry">
                        <Array as="points">
                            <mxPoint x="30" y="150"/>
                            <mxPoint x="30" y="300"/>
                        </Array>
                    </mxGeometry>
                </mxCell>
                <mxCell id="14" style="edgeStyle=orthogonalEdgeStyle;rounded=0;orthogonalLoop=1;jettySize=auto;html=1;exitX=0.25;exitY=1;exitDx=0;exitDy=0;entryX=0;entryY=0.5;entryDx=0;entryDy=0;strokeColor=#000000;" edge="1" parent="1" source="2" target="6">
                    <mxGeometry relative="1" as="geometry">
                        <Array as="points">
                            <mxPoint x="30" y="150"/>
                            <mxPoint x="30" y="380"/>
                        </Array>
                    </mxGeometry>
                </mxCell>
                <mxCell id="16" style="edgeStyle=orthogonalEdgeStyle;rounded=0;orthogonalLoop=1;jettySize=auto;html=1;exitX=0.25;exitY=1;exitDx=0;exitDy=0;entryX=0;entryY=0.5;entryDx=0;entryDy=0;strokeColor=#000000;" edge="1" parent="1" source="2" target="15">
                    <mxGeometry relative="1" as="geometry">
                        <Array as="points">
                            <mxPoint x="30" y="150"/>
                            <mxPoint x="30" y="460"/>
                        </Array>
                    </mxGeometry>
                </mxCell>
                <mxCell id="2" value="WebGL" style="rounded=1;whiteSpace=wrap;html=1;" vertex="1" parent="1">
                    <mxGeometry x="30" y="90" width="160" height="60" as="geometry"/>
                </mxCell>
                <mxCell id="27" style="edgeStyle=none;sketch=0;orthogonalLoop=1;jettySize=auto;html=1;exitX=0.5;exitY=1;exitDx=0;exitDy=0;entryX=0.5;entryY=0;entryDx=0;entryDy=0;shadow=1;endArrow=none;endFill=0;strokeColor=#001DBC;fillColor=#0050ef;" edge="1" parent="1" source="3" target="4">
                    <mxGeometry relative="1" as="geometry"/>
                </mxCell>
                <mxCell id="3" value="&lt;font color=&quot;#0a0a0a&quot;&gt;Gesture Manager&lt;br&gt;(Implement Logic)&lt;br&gt;&lt;/font&gt;" style="rounded=1;whiteSpace=wrap;html=1;fillColor=#fff2cc;strokeColor=#d6b656;" vertex="1" parent="1">
                    <mxGeometry x="250" y="120" width="120" height="60" as="geometry"/>
                </mxCell>
                <mxCell id="4" value="&lt;font color=&quot;#000000&quot;&gt;Event Manager&lt;/font&gt;" style="rounded=1;whiteSpace=wrap;html=1;fillColor=#fff2cc;strokeColor=#d6b656;" vertex="1" parent="1">
                    <mxGeometry x="245" y="245" width="120" height="60" as="geometry"/>
                </mxCell>
                <mxCell id="17" style="orthogonalLoop=1;jettySize=auto;html=1;exitX=1;exitY=0.25;exitDx=0;exitDy=0;entryX=0;entryY=0.5;entryDx=0;entryDy=0;strokeColor=#001DBC;sketch=0;shadow=1;fillColor=#0050ef;endArrow=none;endFill=0;" edge="1" parent="1" source="5" target="4">
                    <mxGeometry relative="1" as="geometry"/>
                </mxCell>
                <mxCell id="5" value="Scene&lt;br&gt;" style="rounded=1;whiteSpace=wrap;html=1;" vertex="1" parent="1">
                    <mxGeometry x="50" y="190" width="120" height="60" as="geometry"/>
                </mxCell>
                <mxCell id="19" style="sketch=0;orthogonalLoop=1;jettySize=auto;html=1;exitX=1;exitY=0.5;exitDx=0;exitDy=0;shadow=1;strokeColor=#001DBC;entryX=0;entryY=0.5;entryDx=0;entryDy=0;fillColor=#0050ef;endArrow=none;endFill=0;" edge="1" parent="1" source="6" target="4">
                    <mxGeometry relative="1" as="geometry">
                        <mxPoint x="240" y="270" as="targetPoint"/>
                    </mxGeometry>
                </mxCell>
                <mxCell id="6" value="Camera" style="rounded=1;whiteSpace=wrap;html=1;" vertex="1" parent="1">
                    <mxGeometry x="50" y="350" width="120" height="60" as="geometry"/>
                </mxCell>
                <mxCell id="18" style="sketch=0;orthogonalLoop=1;jettySize=auto;html=1;exitX=1;exitY=0.5;exitDx=0;exitDy=0;entryX=0;entryY=0.5;entryDx=0;entryDy=0;shadow=1;strokeColor=#001DBC;fillColor=#0050ef;endArrow=none;endFill=0;" edge="1" parent="1" source="7" target="4">
                    <mxGeometry relative="1" as="geometry"/>
                </mxCell>
                <mxCell id="7" value="Renderer" style="rounded=1;whiteSpace=wrap;html=1;" vertex="1" parent="1">
                    <mxGeometry x="50" y="270" width="120" height="60" as="geometry"/>
                </mxCell>
                <mxCell id="11" value="&lt;font color=&quot;#000000&quot;&gt;Canvas&lt;/font&gt;" style="text;strokeColor=none;fillColor=none;html=1;fontSize=24;fontStyle=1;verticalAlign=middle;align=center;rounded=1;" vertex="1" parent="1">
                    <mxGeometry x="60" y="50" width="100" height="40" as="geometry"/>
                </mxCell>
                <mxCell id="20" style="sketch=0;orthogonalLoop=1;jettySize=auto;html=1;exitX=1;exitY=0.5;exitDx=0;exitDy=0;shadow=1;strokeColor=#001DBC;entryX=0;entryY=0.5;entryDx=0;entryDy=0;fillColor=#0050ef;endArrow=none;endFill=0;" edge="1" parent="1" source="15" target="4">
                    <mxGeometry relative="1" as="geometry">
                        <mxPoint x="240" y="280" as="targetPoint"/>
                    </mxGeometry>
                </mxCell>
                <mxCell id="15" value="&lt;font color=&quot;#ffffff&quot;&gt;Objects&lt;/font&gt;" style="rounded=1;whiteSpace=wrap;html=1;" vertex="1" parent="1">
                    <mxGeometry x="50" y="430" width="120" height="60" as="geometry"/>
                </mxCell>
                <mxCell id="21" value="&lt;font color=&quot;#0000ff&quot; size=&quot;1&quot;&gt;&lt;b style=&quot;font-size: 16px&quot;&gt;Blue = Event&lt;br&gt;&lt;/b&gt;&lt;/font&gt;" style="text;html=1;strokeColor=none;fillColor=none;align=center;verticalAlign=middle;whiteSpace=wrap;rounded=0;" vertex="1" parent="1">
                    <mxGeometry x="250" y="310" width="110" height="20" as="geometry"/>
                </mxCell>
                <mxCell id="28" value="" style="shape=ext;double=1;rounded=1;whiteSpace=wrap;html=1;fillColor=#C4C4C4;shadow=1;strokeColor=#6B6B6B;" vertex="1" parent="1">
                    <mxGeometry x="432.5" y="40" width="180" height="120" as="geometry"/>
                </mxCell>
                <mxCell id="29" value="&lt;font color=&quot;#000000&quot; style=&quot;font-size: 18px&quot;&gt;Gesture View&lt;/font&gt;" style="text;strokeColor=none;fillColor=none;html=1;fontSize=24;fontStyle=1;verticalAlign=middle;align=center;rounded=1;shadow=1;" vertex="1" parent="1">
                    <mxGeometry x="447.5" y="40" width="130" height="40" as="geometry"/>
                </mxCell>
                <mxCell id="32" style="edgeStyle=none;sketch=0;orthogonalLoop=1;jettySize=auto;html=1;exitX=0;exitY=0.5;exitDx=0;exitDy=0;entryX=1;entryY=0.25;entryDx=0;entryDy=0;shadow=1;endArrow=classic;endFill=1;strokeColor=#00CCCC;" edge="1" parent="1" source="30" target="3">
                    <mxGeometry relative="1" as="geometry"/>
                </mxCell>
                <mxCell id="30" value="Gesture Responder&lt;br&gt;(dispatch gesture info)" style="shape=parallelogram;perimeter=parallelogramPerimeter;whiteSpace=wrap;html=1;fixedSize=1;rounded=1;shadow=1;" vertex="1" parent="1">
                    <mxGeometry x="442.5" y="80" width="160" height="60" as="geometry"/>
                </mxCell>
                <mxCell id="44" style="edgeStyle=none;sketch=0;orthogonalLoop=1;jettySize=auto;html=1;exitX=0;exitY=0.5;exitDx=0;exitDy=0;entryX=1;entryY=0.75;entryDx=0;entryDy=0;shadow=1;endArrow=classic;endFill=1;strokeColor=#0000FF;" edge="1" parent="1" source="33" target="7">
                    <mxGeometry relative="1" as="geometry"/>
                </mxCell>
                <mxCell id="33" value="&lt;font color=&quot;#0a0a0a&quot; style=&quot;font-size: 18px&quot;&gt;&lt;b&gt;Physic Engine&lt;/b&gt;&lt;/font&gt;" style="shape=process;whiteSpace=wrap;html=1;backgroundOutline=1;rounded=1;shadow=1;strokeColor=#6B6B6B;fillColor=#C4C4C4;" vertex="1" parent="1">
                    <mxGeometry x="412.5" y="370" width="165" height="60" as="geometry"/>
                </mxCell>
                <mxCell id="35" style="edgeStyle=none;sketch=0;orthogonalLoop=1;jettySize=auto;html=1;exitX=0;exitY=0.5;exitDx=0;exitDy=0;entryX=1;entryY=0.5;entryDx=0;entryDy=0;shadow=1;endArrow=classic;endFill=1;strokeColor=#0000FF;" edge="1" parent="1" source="43" target="4">
                    <mxGeometry relative="1" as="geometry">
                        <mxPoint x="460" y="360" as="sourcePoint"/>
                    </mxGeometry>
                </mxCell>
                <mxCell id="36" value="&lt;font style=&quot;font-size: 18px ; background-color: rgb(255 , 255 , 255)&quot; color=&quot;#00cccc&quot;&gt;&lt;b&gt;function call&lt;/b&gt;&lt;/font&gt;" style="text;html=1;strokeColor=none;fillColor=none;align=center;verticalAlign=middle;whiteSpace=wrap;rounded=0;shadow=1;" vertex="1" parent="1">
                    <mxGeometry x="370" y="170" width="110" height="20" as="geometry"/>
                </mxCell>
                <mxCell id="40" style="edgeStyle=none;sketch=0;orthogonalLoop=1;jettySize=auto;html=1;exitX=0;exitY=0.5;exitDx=0;exitDy=0;entryX=1;entryY=0.5;entryDx=0;entryDy=0;shadow=1;endArrow=classic;endFill=1;strokeColor=#0000FF;" edge="1" parent="1" source="39" target="4">
                    <mxGeometry relative="1" as="geometry"/>
                </mxCell>
                <mxCell id="39" value="&lt;span style=&quot;color: rgb(0 , 0 , 0) ; font-size: 24px&quot;&gt;&lt;b&gt;KB Input Listener&lt;/b&gt;&lt;/span&gt;" style="shape=parallelogram;perimeter=parallelogramPerimeter;whiteSpace=wrap;html=1;fixedSize=1;rounded=1;shadow=1;strokeColor=#6B6B6B;fillColor=#C4C4C4;" vertex="1" parent="1">
                    <mxGeometry x="397.5" y="210" width="230" height="60" as="geometry"/>
                </mxCell>
                <mxCell id="45" style="edgeStyle=none;sketch=0;orthogonalLoop=1;jettySize=auto;html=1;exitX=0;exitY=0.5;exitDx=0;exitDy=0;entryX=1;entryY=0.75;entryDx=0;entryDy=0;shadow=1;endArrow=classic;endFill=1;strokeColor=#0000FF;" edge="1" parent="1" source="41" target="7">
                    <mxGeometry relative="1" as="geometry"/>
                </mxCell>
                <mxCell id="41" value="&lt;font color=&quot;#000000&quot; style=&quot;font-size: 18px&quot;&gt;&lt;b&gt;Animation&lt;/b&gt;&lt;/font&gt;" style="shape=process;whiteSpace=wrap;html=1;backgroundOutline=1;rounded=1;shadow=1;strokeColor=#6B6B6B;fillColor=#C4C4C4;" vertex="1" parent="1">
                    <mxGeometry x="414" y="450" width="120" height="60" as="geometry"/>
                </mxCell>
                <mxCell id="46" style="edgeStyle=none;sketch=0;orthogonalLoop=1;jettySize=auto;html=1;exitX=0;exitY=0.5;exitDx=0;exitDy=0;entryX=1;entryY=0.75;entryDx=0;entryDy=0;shadow=1;endArrow=classic;endFill=1;strokeColor=#0000FF;" edge="1" parent="1" source="42" target="7">
                    <mxGeometry relative="1" as="geometry"/>
                </mxCell>
                <mxCell id="42" value="&lt;font style=&quot;font-size: 18px&quot; color=&quot;#000000&quot;&gt;&lt;b&gt;post-processing&lt;/b&gt;&lt;/font&gt;" style="shape=process;whiteSpace=wrap;html=1;backgroundOutline=1;rounded=1;shadow=1;strokeColor=#6B6B6B;fillColor=#C4C4C4;" vertex="1" parent="1">
                    <mxGeometry x="414" y="530" width="180" height="60" as="geometry"/>
                </mxCell>
                <mxCell id="43" value="&lt;b style=&quot;color: rgb(0 , 0 , 0) ; font-size: 18px&quot;&gt;React UI&lt;/b&gt;" style="shape=ext;double=1;rounded=1;whiteSpace=wrap;html=1;shadow=1;fillColor=#C4C4C4;gradientColor=none;strokeColor=#666666;" vertex="1" parent="1">
                    <mxGeometry x="414" y="290" width="120" height="60" as="geometry"/>
                </mxCell>
                <mxCell id="47" value="&lt;font style=&quot;font-size: 18px&quot; color=&quot;#000000&quot;&gt;App state&lt;/font&gt;" style="shape=hexagon;perimeter=hexagonPerimeter2;whiteSpace=wrap;html=1;fixedSize=1;rounded=1;shadow=1;strokeColor=#666666;fillColor=#C4C4C4;gradientColor=none;" vertex="1" parent="1">
                    <mxGeometry x="670" y="50" width="120" height="60" as="geometry"/>
                </mxCell>
            </root>
        </mxGraphModel>
    </diagram>
</mxfile>